<svg xmlns="http://www.w3.org/2000/svg" width="60" height="61" fill="none" viewBox="0 0 60 61">
    <g clip-path="url(#clip0)" opacity=".5">
        <path fill="#F8F9FA" d="M25.619 0H11.027C9.565 0 8.162.58 7.128 1.615 6.094 2.649 5.514 4.05 5.514 5.514v33.08c0 1.463.58 2.865 1.614 3.9 1.034 1.033 2.437 1.614 3.899 1.614h22.054c1.462 0 2.865-.58 3.899-1.615 1.034-1.034 1.615-2.436 1.615-3.898V12.976c0-.731-.291-1.432-.808-1.949L27.567.807C27.052.292 26.35 0 25.62 0zm1.949 37.216v-16.54c0-.366.145-.716.403-.975.259-.259.61-.404.975-.404h2.757c.365 0 .716.145.974.404.259.258.404.61.404.975v16.54c0 .366-.145.716-.404.975-.258.258-.609.404-.974.404h-2.757c-.366 0-.716-.146-.975-.404-.258-.259-.403-.61-.403-.975zm-6.892 1.379c-.366 0-.716-.146-.975-.404-.259-.259-.404-.61-.404-.975V26.19c0-.365.145-.716.404-.974.258-.259.61-.404.975-.404h2.756c.366 0 .717.145.975.404.259.258.404.609.404.974v11.027c0 .366-.145.716-.404.975-.258.258-.609.404-.975.404h-2.756zm-8.27 0c-.366 0-.717-.146-.975-.404-.259-.259-.404-.61-.404-.975v-5.513c0-.366.145-.716.404-.975.258-.259.609-.404.974-.404h2.757c.366 0 .716.145.975.404.258.258.404.61.404.975v5.513c0 .366-.146.716-.404.975-.259.258-.61.404-.975.404h-2.757z"/>
    </g>
    <g fill="#F8F9FA" clip-path="url(#clip1)">
        <path d="M46.331 48.956c2.002-2.732 2.899-6.12 2.51-9.484-.387-3.365-2.032-6.459-4.603-8.663-2.571-2.205-5.88-3.357-9.264-3.227-3.385.13-6.595 1.534-8.99 3.93-2.394 2.396-3.795 5.607-3.923 8.992-.128 3.384 1.027 6.692 3.233 9.262 2.207 2.57 5.302 4.212 8.667 4.597 3.365.386 6.751-.513 9.482-2.517h-.002c.062.083.128.161.202.238l7.96 7.96c.388.388.914.606 1.462.606.549 0 1.075-.217 1.463-.605.388-.388.606-.914.606-1.462 0-.549-.217-1.075-.605-1.463l-7.96-7.96c-.074-.075-.154-.144-.238-.207v.002zm.533-7.948c0 1.493-.294 2.972-.865 4.351-.572 1.38-1.41 2.634-2.465 3.69-1.056 1.056-2.31 1.893-3.69 2.465-1.38.571-2.858.865-4.351.865-1.494 0-2.972-.294-4.352-.865-1.38-.572-2.633-1.41-3.69-2.465-1.055-1.056-1.893-2.31-2.464-3.69-.572-1.38-.866-2.858-.866-4.351 0-3.016 1.198-5.909 3.33-8.041 2.133-2.133 5.026-3.33 8.042-3.33s5.908 1.197 8.04 3.33c2.133 2.132 3.331 5.025 3.331 8.04z"/>
        <path d="M46.864 41.008c0 1.493-.294 2.972-.865 4.352-.572 1.38-1.41 2.633-2.465 3.689-1.056 1.056-2.31 1.894-3.69 2.465-1.38.572-2.858.866-4.351.866-1.494 0-2.972-.294-4.352-.866-1.38-.571-2.633-1.409-3.69-2.465-1.055-1.056-1.893-2.31-2.464-3.69-.572-1.379-.866-2.858-.866-4.35 0-3.017 1.198-5.91 3.33-8.042 2.133-2.132 5.026-3.33 8.042-3.33s5.908 1.198 8.04 3.33c2.133 2.133 3.331 5.025 3.331 8.041z" opacity=".5"/>
    </g>
    <defs>
        <clipPath id="clip0">
            <path fill="#fff" d="M0 0H44.108V44.108H0z"/>
        </clipPath>
        <clipPath id="clip1">
            <path fill="#fff" d="M0 0H33.081V33.081H0z" transform="translate(22.054 27.5676)"/>
        </clipPath>
    </defs>
</svg>
